<mxfile host="app.diagrams.net" agent="Mozilla/5.0 (Windows NT 10.0; Win64; x64) AppleWebKit/537.36 (KHTML, like Gecko) Chrome/131.0.0.0 Safari/537.36" version="26.0.2">
  <diagram name="Σελίδα-1" id="VGns2ckOxA8oa79EkmPE">
    <mxGraphModel dx="797" dy="414" grid="1" gridSize="10" guides="1" tooltips="1" connect="1" arrows="1" fold="1" page="1" pageScale="1" pageWidth="827" pageHeight="1169" math="0" shadow="0">
      <root>
        <mxCell id="0" />
        <mxCell id="1" parent="0" />
        <mxCell id="lAPGg_TDAHbYxDe0sxNQ-1" value="&lt;font face=&quot;Garamond&quot;&gt;Επίπεδο Εφαρμογής&lt;/font&gt;&lt;div&gt;&lt;font style=&quot;font-size: 10px;&quot; face=&quot;Garamond&quot;&gt;(Application Layer)&lt;/font&gt;&lt;/div&gt;" style="rounded=0;whiteSpace=wrap;html=1;" vertex="1" parent="1">
          <mxGeometry x="320" y="120" width="200" height="40" as="geometry" />
        </mxCell>
        <mxCell id="lAPGg_TDAHbYxDe0sxNQ-2" value="&lt;font style=&quot;background-color: light-dark(#ffffff, var(--ge-dark-color, #121212));&quot; face=&quot;Garamond&quot;&gt;Επίπεδο&amp;nbsp;&lt;/font&gt;&lt;font style=&quot;color: light-dark(rgb(0, 0, 0), rgb(255, 255, 255)); background-color: light-dark(#ffffff, var(--ge-dark-color, #121212));&quot; face=&quot;Garamond&quot;&gt;Ενσωμάτωσης&amp;nbsp;&lt;/font&gt;&lt;span style=&quot;background-color: light-dark(#ffffff, var(--ge-dark-color, #121212)); color: light-dark(rgb(0, 0, 0), rgb(255, 255, 255)); font-family: Garamond;&quot;&gt;Υπηρεσιών&lt;/span&gt;&lt;div&gt;&lt;span style=&quot;font-family: Garamond; font-size: 10px;&quot;&gt;(Service Integration Layer)&lt;/span&gt;&lt;/div&gt;" style="rounded=0;whiteSpace=wrap;html=1;" vertex="1" parent="1">
          <mxGeometry x="320" y="160" width="200" height="40" as="geometry" />
        </mxCell>
        <mxCell id="lAPGg_TDAHbYxDe0sxNQ-4" value="&lt;font style=&quot;background-color: light-dark(#ffffff, var(--ge-dark-color, #121212));&quot; face=&quot;Garamond&quot;&gt;Επίπεδο&amp;nbsp;&lt;/font&gt;&lt;font style=&quot;color: light-dark(rgb(0, 0, 0), rgb(255, 255, 255)); background-color: light-dark(#ffffff, var(--ge-dark-color, #121212));&quot; face=&quot;Garamond&quot;&gt;Ενσωμάτωσης&amp;nbsp;&lt;/font&gt;&lt;span style=&quot;background-color: light-dark(#ffffff, var(--ge-dark-color, #121212)); color: light-dark(rgb(0, 0, 0), rgb(255, 255, 255)); font-family: Garamond;&quot;&gt;Δεδομένων&lt;/span&gt;&lt;div&gt;&lt;span style=&quot;font-family: Garamond; font-size: 10px;&quot;&gt;(Data Integration Layer)&lt;/span&gt;&lt;span style=&quot;background-color: light-dark(#ffffff, var(--ge-dark-color, #121212)); color: light-dark(rgb(0, 0, 0), rgb(255, 255, 255)); font-family: Garamond;&quot;&gt;&lt;/span&gt;&lt;/div&gt;" style="rounded=0;whiteSpace=wrap;html=1;" vertex="1" parent="1">
          <mxGeometry x="320" y="200" width="200" height="40" as="geometry" />
        </mxCell>
        <mxCell id="lAPGg_TDAHbYxDe0sxNQ-5" value="&lt;font style=&quot;background-color: light-dark(#ffffff, var(--ge-dark-color, #121212));&quot; face=&quot;Garamond&quot;&gt;Επίπεδο Διανομής&lt;/font&gt;&lt;div&gt;&lt;span style=&quot;font-family: Garamond; font-size: 10px;&quot;&gt;(Deployement&amp;nbsp;&lt;/span&gt;&lt;span style=&quot;font-family: Garamond; font-size: 10px; background-color: transparent; color: light-dark(rgb(0, 0, 0), rgb(255, 255, 255));&quot;&gt;Layer)&lt;/span&gt;&lt;/div&gt;" style="rounded=0;whiteSpace=wrap;html=1;" vertex="1" parent="1">
          <mxGeometry x="320" y="240" width="200" height="40" as="geometry" />
        </mxCell>
      </root>
    </mxGraphModel>
  </diagram>
</mxfile>
